<?xml version="1.0" encoding="utf-8"?>
<!-- Generator: Adobe Illustrator 28.0.0, SVG Export Plug-In . SVG Version: 6.00 Build 0)  -->
<svg version="1.1" id="_x32_" xmlns="http://www.w3.org/2000/svg" xmlns:xlink="http://www.w3.org/1999/xlink" x="0px" y="0px"
	 viewBox="0 0 800 800" style="enable-background:new 0 0 800 800;" xml:space="preserve">
<g>
	<path d="M244.3,383.6c-7.4,0.2-15.3-0.4-19.4-3.1c-4.1-2.7-9.1-10.8-14.1-17.3c-23.4-30.5-64.9-43.2-102.5-28.6
		c-45.6,17.8-68.2,69.2-50.5,114.8c17.8,45.6,69.2,68.2,114.8,50.5c22.6-8.8,39.5-25.8,48.7-46.3c1.5-3.5,2.4-5.4,5-8
		c2.6-2.6,8-4.2,12.3-5.1c25.2-5.2,46.4-5.4,64.1-2.7l3.1-8.4c1-2.8,7.1-20,16.1-45.2C301,384.3,270.9,382.8,244.3,383.6z
		 M157.9,461.8c-24.7,9.6-52.4-2.6-62.1-27.3c-9.6-24.7,2.6-52.4,27.3-62.1c24.7-9.6,52.4,2.6,62.1,27.3
		C194.7,424.4,182.5,452.2,157.9,461.8z"/>
	<path d="M747,283.9c-5.2-13.4-21.2-14.9-60.9-4.6c-21.5,5.6-120.9,35.5-207.6,61.7c-8.5,44.5-16.3,84.4-20.8,107.7
		c88.2-42.3,223.4-107.5,247.5-120.2C741.4,309.2,752.2,297.3,747,283.9z"/>
	<path d="M465.7,592.7c-7-4.3-15.6-8.4-18.7-12.2c-3.1-3.8-4.6-11.6-5.1-19c-2.8-36.3-10.4-78.7-9.4-95.9c0,0,61-313.8,67.1-354.3
		c6.1-40.6,3-56.3-10.9-60.1c-13.9-3.8-24.6,8.2-40,46.2c-15.4,38-122.6,339.2-122.6,339.2s70.6,28,59.8,136.5
		c-0.4,4.3-1.5,9.8-3.8,12.7c-2.3,2.9-4.1,3.9-7.4,5.8c-19.4,11.3-34.6,29.9-41,53.2c-12.9,47.2,14.9,96,62.1,108.9
		c47.2,12.9,96-14.9,108.9-62.2C515.5,652.7,498.5,612.8,465.7,592.7z M383.1,437.2c-8.9-2.4-14.2-11.7-11.8-20.6
		c2.4-8.9,11.7-14.2,20.6-11.8c8.9,2.5,14.2,11.7,11.8,20.6C401.3,434.4,392,439.7,383.1,437.2z M465.5,680.9
		c-7,25.5-33.3,40.6-58.9,33.6c-25.5-7-40.6-33.3-33.6-58.9c7-25.5,33.4-40.6,58.9-33.6C457.5,629,472.5,655.4,465.5,680.9z"/>
</g>
</svg>
